<svg xmlns="http://www.w3.org/2000/svg" width="512" height="512" viewBox="0 0 512 512"><defs><linearGradient id="g" x1="0" y1="0" x2="1" y2="1"><stop offset="0" stop-color="#111c37"/><stop offset="0.6" stop-color="#35216b"/><stop offset="1" stop-color="#7a4fe4"/></linearGradient><linearGradient id="gold" x1="0" y1="0" x2="1" y2="1"><stop offset="0" stop-color="#ffe49a"/><stop offset="1" stop-color="#d59b32"/></linearGradient></defs><rect width="512" height="512" rx="116" fill="url(#g)"/><path d="M110 240 L256 118 L402 240 V388 H110 Z" fill="#fff" opacity=".96"/><path d="M84 250 L256 98 L428 250" fill="none" stroke="#fff" stroke-width="34" stroke-linecap="round" stroke-linejoin="round"/><circle cx="256" cy="274" r="42" fill="#5b3bc0"/><circle cx="197" cy="300" r="28" fill="#5b3bc0"/><circle cx="315" cy="300" r="28" fill="#5b3bc0"/><path d="M161 367c7-41 34-61 69-61s62 20 69 61" fill="#5b3bc0"/><path d="M219 367c8-48 39-72 78-72s70 24 78 72" fill="#5b3bc0"/><circle cx="382" cy="386" r="72" fill="url(#gold)"/><text x="382" y="411" text-anchor="middle" font-family="Arial,sans-serif" font-size="72" font-weight="900" fill="#32225d">₩</text></svg>